<mxfile host="Electron" modified="2023-10-19T11:19:01.772Z" agent="Mozilla/5.0 (Windows NT 10.0; Win64; x64) AppleWebKit/537.36 (KHTML, like Gecko) draw.io/22.0.3 Chrome/114.0.5735.289 Electron/25.8.4 Safari/537.36" etag="Y7GZWY6tyMnxJjXO4TXu" version="22.0.3" type="device">
  <diagram name="Page-1" id="iyKP3aTTw9PRsvcNiRNJ">
    <mxGraphModel dx="864" dy="556" grid="1" gridSize="10" guides="1" tooltips="1" connect="1" arrows="1" fold="1" page="1" pageScale="1" pageWidth="850" pageHeight="1100" math="0" shadow="0">
      <root>
        <mxCell id="0" />
        <mxCell id="1" parent="0" />
        <mxCell id="Tn4uY8db7FXO38YWupUg-1" value="" style="strokeWidth=1;shadow=0;dashed=0;align=center;html=1;shape=mxgraph.mockup.containers.browserWindow;rSize=0;strokeColor=#666666;strokeColor2=#008cff;strokeColor3=#c4c4c4;mainText=,;recursiveResize=0;points=[];" parent="1" vertex="1">
          <mxGeometry x="20" y="10" width="770" height="690" as="geometry" />
        </mxCell>
        <mxCell id="Tn4uY8db7FXO38YWupUg-2" value="Home" style="strokeWidth=1;shadow=0;dashed=0;align=center;html=1;shape=mxgraph.mockup.containers.anchor;fontSize=17;fontColor=#666666;align=left;whiteSpace=wrap;" parent="Tn4uY8db7FXO38YWupUg-1" vertex="1">
          <mxGeometry x="60" y="12" width="110" height="26" as="geometry" />
        </mxCell>
        <mxCell id="Tn4uY8db7FXO38YWupUg-3" value="https://www.draw.io" style="strokeWidth=1;shadow=0;dashed=0;align=center;html=1;shape=mxgraph.mockup.containers.anchor;rSize=0;fontSize=17;fontColor=#666666;align=left;" parent="Tn4uY8db7FXO38YWupUg-1" vertex="1">
          <mxGeometry x="130" y="60" width="250" height="26" as="geometry" />
        </mxCell>
        <mxCell id="Tn4uY8db7FXO38YWupUg-4" value="Search" style="strokeWidth=1;shadow=0;dashed=0;align=center;html=1;shape=mxgraph.mockup.forms.searchBox;strokeColor=#999999;mainText=;strokeColor2=#008cff;fontColor=#666666;fontSize=17;align=left;spacingLeft=3;whiteSpace=wrap;" parent="Tn4uY8db7FXO38YWupUg-1" vertex="1">
          <mxGeometry x="250" y="160" width="250" height="30" as="geometry" />
        </mxCell>
        <mxCell id="Tn4uY8db7FXO38YWupUg-5" value="" style="strokeWidth=1;shadow=0;dashed=0;align=center;html=1;shape=mxgraph.mockup.rrect;rSize=10;fillColor=#ffffff;strokeColor=#666666;" parent="Tn4uY8db7FXO38YWupUg-1" vertex="1">
          <mxGeometry x="190" y="200" width="370" height="50" as="geometry" />
        </mxCell>
        <mxCell id="Tn4uY8db7FXO38YWupUg-6" value="Due" style="strokeColor=inherit;fillColor=inherit;gradientColor=inherit;strokeWidth=1;shadow=0;dashed=0;align=center;html=1;shape=mxgraph.mockup.rrect;rSize=0;fontSize=17;fontColor=#666666;fontStyle=1;resizeHeight=1;whiteSpace=wrap;" parent="Tn4uY8db7FXO38YWupUg-5" vertex="1">
          <mxGeometry width="125" height="50" relative="1" as="geometry">
            <mxPoint x="125" as="offset" />
          </mxGeometry>
        </mxCell>
        <mxCell id="Tn4uY8db7FXO38YWupUg-8" value="Priority" style="strokeColor=inherit;fillColor=inherit;gradientColor=inherit;strokeWidth=1;shadow=0;dashed=0;align=center;html=1;shape=mxgraph.mockup.rightButton;rSize=10;fontSize=17;fontColor=#666666;fontStyle=1;resizeHeight=1;whiteSpace=wrap;" parent="Tn4uY8db7FXO38YWupUg-5" vertex="1">
          <mxGeometry x="1" width="125" height="50" relative="1" as="geometry">
            <mxPoint x="-125" as="offset" />
          </mxGeometry>
        </mxCell>
        <mxCell id="Tn4uY8db7FXO38YWupUg-9" value="category" style="strokeWidth=1;shadow=0;dashed=0;align=center;html=1;shape=mxgraph.mockup.leftButton;rSize=10;fontSize=17;fontColor=#ffffff;fontStyle=1;fillColor=#008cff;strokeColor=#008cff;resizeHeight=1;whiteSpace=wrap;" parent="Tn4uY8db7FXO38YWupUg-5" vertex="1">
          <mxGeometry width="125" height="50" relative="1" as="geometry" />
        </mxCell>
        <mxCell id="Tn4uY8db7FXO38YWupUg-14" value="&lt;font style=&quot;font-size: 25px;&quot;&gt;Task Manager&lt;/font&gt;" style="text;html=1;strokeColor=none;fillColor=none;align=center;verticalAlign=middle;whiteSpace=wrap;rounded=0;" parent="Tn4uY8db7FXO38YWupUg-1" vertex="1">
          <mxGeometry x="210" y="120" width="300" height="30" as="geometry" />
        </mxCell>
        <mxCell id="Tn4uY8db7FXO38YWupUg-15" value="Table" style="shape=table;startSize=0;container=1;collapsible=0;childLayout=tableLayout;strokeColor=default;fontSize=16;" parent="Tn4uY8db7FXO38YWupUg-1" vertex="1">
          <mxGeometry x="170" y="270" width="320" height="170" as="geometry" />
        </mxCell>
        <mxCell id="Tn4uY8db7FXO38YWupUg-16" value="" style="shape=tableRow;horizontal=0;startSize=0;swimlaneHead=0;swimlaneBody=0;strokeColor=inherit;top=0;left=0;bottom=0;right=0;collapsible=0;dropTarget=0;fillColor=none;points=[[0,0.5],[1,0.5]];portConstraint=eastwest;fontSize=16;" parent="Tn4uY8db7FXO38YWupUg-15" vertex="1">
          <mxGeometry width="320" height="56" as="geometry" />
        </mxCell>
        <mxCell id="Tn4uY8db7FXO38YWupUg-17" value="Task" style="shape=partialRectangle;html=1;whiteSpace=wrap;connectable=0;strokeColor=inherit;overflow=hidden;fillColor=none;top=0;left=0;bottom=0;right=0;pointerEvents=1;fontSize=16;" parent="Tn4uY8db7FXO38YWupUg-16" vertex="1">
          <mxGeometry width="106" height="56" as="geometry">
            <mxRectangle width="106" height="56" as="alternateBounds" />
          </mxGeometry>
        </mxCell>
        <mxCell id="Tn4uY8db7FXO38YWupUg-18" value="Added" style="shape=partialRectangle;html=1;whiteSpace=wrap;connectable=0;strokeColor=inherit;overflow=hidden;fillColor=none;top=0;left=0;bottom=0;right=0;pointerEvents=1;fontSize=16;" parent="Tn4uY8db7FXO38YWupUg-16" vertex="1">
          <mxGeometry x="106" width="104" height="56" as="geometry">
            <mxRectangle width="104" height="56" as="alternateBounds" />
          </mxGeometry>
        </mxCell>
        <mxCell id="Tn4uY8db7FXO38YWupUg-19" value="Complete" style="shape=partialRectangle;html=1;whiteSpace=wrap;connectable=0;strokeColor=inherit;overflow=hidden;fillColor=none;top=0;left=0;bottom=0;right=0;pointerEvents=1;fontSize=16;" parent="Tn4uY8db7FXO38YWupUg-16" vertex="1">
          <mxGeometry x="210" width="110" height="56" as="geometry">
            <mxRectangle width="110" height="56" as="alternateBounds" />
          </mxGeometry>
        </mxCell>
        <mxCell id="Tn4uY8db7FXO38YWupUg-20" value="" style="shape=tableRow;horizontal=0;startSize=0;swimlaneHead=0;swimlaneBody=0;strokeColor=inherit;top=0;left=0;bottom=0;right=0;collapsible=0;dropTarget=0;fillColor=none;points=[[0,0.5],[1,0.5]];portConstraint=eastwest;fontSize=16;" parent="Tn4uY8db7FXO38YWupUg-15" vertex="1">
          <mxGeometry y="56" width="320" height="58" as="geometry" />
        </mxCell>
        <mxCell id="Tn4uY8db7FXO38YWupUg-22" value="wash dishes" style="shape=partialRectangle;html=1;whiteSpace=wrap;connectable=0;strokeColor=inherit;overflow=hidden;fillColor=none;top=0;left=0;bottom=0;right=0;pointerEvents=1;fontSize=16;" parent="Tn4uY8db7FXO38YWupUg-20" vertex="1">
          <mxGeometry width="106" height="58" as="geometry">
            <mxRectangle width="106" height="58" as="alternateBounds" />
          </mxGeometry>
        </mxCell>
        <mxCell id="Tn4uY8db7FXO38YWupUg-21" value="" style="shape=partialRectangle;html=1;whiteSpace=wrap;connectable=0;strokeColor=inherit;overflow=hidden;fillColor=none;top=0;left=0;bottom=0;right=0;pointerEvents=1;fontSize=16;" parent="Tn4uY8db7FXO38YWupUg-20" vertex="1">
          <mxGeometry x="106" width="104" height="58" as="geometry">
            <mxRectangle width="104" height="58" as="alternateBounds" />
          </mxGeometry>
        </mxCell>
        <mxCell id="Tn4uY8db7FXO38YWupUg-23" value="" style="shape=partialRectangle;html=1;whiteSpace=wrap;connectable=0;strokeColor=inherit;overflow=hidden;fillColor=none;top=0;left=0;bottom=0;right=0;pointerEvents=1;fontSize=16;" parent="Tn4uY8db7FXO38YWupUg-20" vertex="1">
          <mxGeometry x="210" width="110" height="58" as="geometry">
            <mxRectangle width="110" height="58" as="alternateBounds" />
          </mxGeometry>
        </mxCell>
        <mxCell id="Tn4uY8db7FXO38YWupUg-24" value="" style="shape=tableRow;horizontal=0;startSize=0;swimlaneHead=0;swimlaneBody=0;strokeColor=inherit;top=0;left=0;bottom=0;right=0;collapsible=0;dropTarget=0;fillColor=none;points=[[0,0.5],[1,0.5]];portConstraint=eastwest;fontSize=16;" parent="Tn4uY8db7FXO38YWupUg-15" vertex="1">
          <mxGeometry y="114" width="320" height="56" as="geometry" />
        </mxCell>
        <mxCell id="Tn4uY8db7FXO38YWupUg-25" value="" style="shape=partialRectangle;html=1;whiteSpace=wrap;connectable=0;strokeColor=inherit;overflow=hidden;fillColor=none;top=0;left=0;bottom=0;right=0;pointerEvents=1;fontSize=16;" parent="Tn4uY8db7FXO38YWupUg-24" vertex="1">
          <mxGeometry width="106" height="56" as="geometry">
            <mxRectangle width="106" height="56" as="alternateBounds" />
          </mxGeometry>
        </mxCell>
        <mxCell id="Tn4uY8db7FXO38YWupUg-26" value="" style="shape=partialRectangle;html=1;whiteSpace=wrap;connectable=0;strokeColor=inherit;overflow=hidden;fillColor=none;top=0;left=0;bottom=0;right=0;pointerEvents=1;fontSize=16;" parent="Tn4uY8db7FXO38YWupUg-24" vertex="1">
          <mxGeometry x="106" width="104" height="56" as="geometry">
            <mxRectangle width="104" height="56" as="alternateBounds" />
          </mxGeometry>
        </mxCell>
        <mxCell id="Tn4uY8db7FXO38YWupUg-27" value="" style="shape=partialRectangle;html=1;whiteSpace=wrap;connectable=0;strokeColor=inherit;overflow=hidden;fillColor=none;top=0;left=0;bottom=0;right=0;pointerEvents=1;fontSize=16;" parent="Tn4uY8db7FXO38YWupUg-24" vertex="1">
          <mxGeometry x="210" width="110" height="56" as="geometry">
            <mxRectangle width="110" height="56" as="alternateBounds" />
          </mxGeometry>
        </mxCell>
        <mxCell id="bAZHrNeICJsqjPc-qsAg-29" value="Action" style="shape=ext;double=1;rounded=0;whiteSpace=wrap;html=1;" parent="Tn4uY8db7FXO38YWupUg-1" vertex="1">
          <mxGeometry x="470" y="270" width="120" height="60" as="geometry" />
        </mxCell>
        <mxCell id="bAZHrNeICJsqjPc-qsAg-30" value="" style="shape=ext;double=1;rounded=0;whiteSpace=wrap;html=1;" parent="Tn4uY8db7FXO38YWupUg-1" vertex="1">
          <mxGeometry x="470" y="325" width="120" height="60" as="geometry" />
        </mxCell>
        <mxCell id="bAZHrNeICJsqjPc-qsAg-31" value="" style="shape=ext;double=1;rounded=0;whiteSpace=wrap;html=1;" parent="Tn4uY8db7FXO38YWupUg-1" vertex="1">
          <mxGeometry x="470" y="380" width="120" height="60" as="geometry" />
        </mxCell>
        <mxCell id="Tn4uY8db7FXO38YWupUg-28" value="&lt;font style=&quot;font-size: 13px;&quot;&gt;Delete&lt;/font&gt;" style="strokeWidth=1;shadow=0;dashed=0;align=center;html=1;shape=mxgraph.mockup.buttons.button;strokeColor=#666666;fontColor=#ffffff;mainText=;buttonStyle=round;fontSize=17;fontStyle=1;fillColor=#008cff;whiteSpace=wrap;" parent="Tn4uY8db7FXO38YWupUg-1" vertex="1">
          <mxGeometry x="510" y="330" width="50" height="20" as="geometry" />
        </mxCell>
        <mxCell id="Tn4uY8db7FXO38YWupUg-29" value="&lt;font style=&quot;font-size: 11px;&quot;&gt;Update&lt;/font&gt;" style="strokeWidth=1;shadow=0;dashed=0;align=center;html=1;shape=mxgraph.mockup.buttons.button;strokeColor=#666666;fontColor=#ffffff;mainText=;buttonStyle=round;fontSize=17;fontStyle=1;fillColor=#008cff;whiteSpace=wrap;" parent="Tn4uY8db7FXO38YWupUg-1" vertex="1">
          <mxGeometry x="510" y="360" width="50" height="20" as="geometry" />
        </mxCell>
        <mxCell id="bAZHrNeICJsqjPc-qsAg-32" value="" style="html=1;verticalLabelPosition=bottom;align=center;labelBackgroundColor=#ffffff;verticalAlign=top;strokeWidth=2;strokeColor=#0080F0;shadow=0;dashed=0;shape=mxgraph.ios7.icons.bell;" parent="Tn4uY8db7FXO38YWupUg-1" vertex="1">
          <mxGeometry x="260" y="367.9" width="10" height="12.1" as="geometry" />
        </mxCell>
        <mxCell id="bAZHrNeICJsqjPc-qsAg-35" value="" style="strokeWidth=1;shadow=0;dashed=0;align=center;html=1;shape=mxgraph.mockup.buttons.onOffButton;gradientColor=none;strokeColor=#999999;buttonState=on;fillColor2=#008cff;fontColor=#ffffff;fontSize=17;mainText=;spacingRight=40;fontStyle=1;whiteSpace=wrap;" parent="Tn4uY8db7FXO38YWupUg-1" vertex="1">
          <mxGeometry x="420" y="347.9" width="25" height="12.1" as="geometry" />
        </mxCell>
      </root>
    </mxGraphModel>
  </diagram>
</mxfile>
